<svg xmlns="http://www.w3.org/2000/svg" viewBox="0 0 312.9 315.09"><defs><clipPath id="a"><path fill="none" d="M0 .01h312.9v315.08H0z"/></clipPath><clipPath id="b"><path fill="none" d="M0 .01h312.9v315.08H0z"/></clipPath><clipPath id="c"><path fill="none" d="M287.21 166.02h4.28v6.65h-4.28z"/></clipPath><clipPath id="d"><path fill="none" d="M273.89 165.82h4.12v6.82h-4.12z"/></clipPath></defs><g clip-path="url(#a)"><g clip-path="url(#b)"><path d="M141.93 130.39c-8.17-.07-16.35-.22-24.52-.18a5.16 5.16 0 0 1-4.68-2.2c-4.16-5.47-8.46-10.83-12.79-16.16a4.705 4.705 0 0 1-1.04-4.44 16206 16206 0 0 0 17.98-84.34 6.98 6.98 0 0 1 2.58-4.31c6.98-5.59 13.9-11.26 20.77-16.99a6.813 6.813 0 0 1 4.69-1.76c18.22.07 36.44.07 54.67 0 1.73-.12 3.39.69 4.35 2.13a519.7 519.7 0 0 0 12.56 15.93 5.295 5.295 0 0 1 1.25 5.01c-5.83 27.03-11.68 54.07-17.27 81.15-.65 3.83-2.78 7.25-5.93 9.52-6.17 4.67-12.07 9.7-18 14.67a7.042 7.042 0 0 1-5.03 1.77c-3.59-.07-7.18.11-10.77.18a8.572 8.572 0 0 0-4.18-.05c-3.48-.3-6.98-.29-10.46.03a8.115 8.115 0 0 0-4.18.02m-7.45-51.97c.42-.08.68-.06.8-.17 16.88-15.81 33.76-31.63 50.62-47.46.44-.41 1.07-.72.85-1.58-.53-2.09-4.74-5.41-6.97-5.41-7.53 0-15.06.08-22.59-.05-2.43-.04-4.19.85-6.21 2.12-5.33 3.34-7.93 8.02-8.47 14.13-.25 1.83-.61 3.65-1.08 5.45-2.31 10.96-4.63 21.92-6.96 32.98m47.99-27.33C164.81 67.66 147.8 83.63 130.8 99.6c-.45.42-1.05.73-.83 1.58.54 2.08 4.76 5.33 7.04 5.34 5.89 0 11.81-.37 17.66.11 5.96.49 10.88-.92 14.87-5.41 1.05-1.18 2.65-1.71 3.04-3.63 3.16-15.23 6.44-30.44 9.87-46.5" fill="#4256a2"/><path d="M65.4 23.74c5.33-5.76 10.67-11.52 16-17.27C83 4.74 89.97 3.36 92 4.35c1.18.58.54 1.49.38 2.26-3.93 18.53-7.88 37.05-11.83 55.58-2 9.37-3.96 18.74-6.05 28.09-.45 2.02.17 2.42 2.03 2.35 3.47-.12 6.96-.03 10.34-.03.13.31.2.4.19.48q-.95 7.72-8.68 7.72-6.04 0-7.25 5.99c-1.61 7.89-3.31 15.77-4.81 23.68-.42 2.2-1.18 3.01-3.56 2.93-5.61-.19-5.58-.03-4.39-5.65 1.66-7.88 3.05-15.83 4.98-23.64.84-3.38-.39-3.45-3.05-3.44-18.54.09-37.09 0-55.63.09-2.79.01-4.11-.14-3.16-3.6.7-3.16 2.21-6.08 4.36-8.49 10.88-11.63 21.59-23.41 32.35-35.15.81-.88 1.53-1.84 2.29-2.76l2.36-2.36.03-.03.69-1.04-.04.06c.51-.32 1.16-.57.68-1.38l-.06.05c1.07.1 2.02-.69 2.12-1.76.02-.17 0-.34-.02-.5.41.17.88.05 1.14-.31 3.97-4.41 7.94-8.81 11.92-13.22 1.04-.93 2.36-1.65 2.6-3.23l-.03.04c.78-.35 1.54-.71.66-1.7h.04c1.73.8 1.94-1.01 2.82-1.66m15.25-6.44c-23.03 25.29-45.6 50.08-68.74 75.48h4.09c15.37 0 30.74-.11 46.11.09 2.99.04 3.79-1.09 4.32-3.66 4.24-20.56 8.64-41.1 12.87-61.66.64-3.1 1.93-6.16 1.33-10.23M279.6 136.97c-.02-11.35-.11-22.7 0-34.05.02-2.44-.6-3.11-3.08-3.1-19.43.11-38.85.07-58.28.05-1.18 0-2.4.27-3.53-.28.31-4.44 2.2-8.62 5.33-11.78 24.93-26.89 49.66-53.96 74.44-80.97 1.97-2.14 7.46-3.46 10.12-2.51 1.4.5.9 1.63.85 2.47-.32 4.8-1.71 9.42-2.69 14.1-4.81 22.92-9.71 45.82-14.68 68.7-.54 2.5-.11 3.28 2.5 3.06 2.71-.23 5.45.02 8.18-.08 1.49-.05 1.99.42 1.55 1.86-.12.42-.2.85-.21 1.29-.17 3.31-1.63 4.67-5.16 4.26-2.76-.32-6.46-1.27-8.23.41-1.93 1.84-.6 5.57-.62 8.47-.09 9.39-.03 18.77-.03 28.16l-6.45-.04m-54.09-44.4c1.72.08 2.75.18 3.79.18 15.49 0 30.98-.07 46.47.08 2.61.03 3.51-.77 4.01-3.22 4.76-23.03 9.64-46.03 14.45-69.04.43-1.07.38-2.27-.14-3.3l-68.58 75.3m69.17-75.84c-.07.07-.19.13-.19.2s.11.15.17.23c.07-.07.19-.13.19-.21s-.11-.15-.17-.22" fill="#282828"/><path d="M178.73 267.56c-2.59 2.02-4.89.82-7.18-.63-10.37-6.56-16.32-16.05-18.65-27.96-2.58-13.2-3.25-26.59-3.87-39.98-.46-10.02-1.14-20.01-3.87-29.74-.76-2.72.53-4.37 2.99-5.32l.07 1.72c-2.6 1.28-2.31 2.72.02 3.78a12.46 12.46 0 0 0 10.98-.2c1.52-.73 2.67-1.76.78-3.38l.39-1.6c2.06 1.27 2.4 2.82 1.67 5.23a63.94 63.94 0 0 0-2.53 19.35c.19 15.47 1.05 30.91 3.87 46.16 1.71 9.25 7.1 15.68 15.75 19.37 2.32.99 4.25 2.24 4.4 5.08-.78-.11-1.49-.5-2.02-1.08-1.07-2.59-2.99-2.63-5.03-1.45a7.466 7.466 0 0 0-4 6.64c-.04 2.9 1.24 3.85 4.34 3.35l1.88.68" fill="#262e64"/><path d="M46.26 43.81a1.946 1.946 0 0 1-2.1 2.26c.42-.82.09-1.83-.73-2.25-.38-.19-.82-.24-1.23-.11a3.022 3.022 0 0 0-2.45 2.98c.16 1.6 1.56 2.08 3.12 1.72l-2.35 2.36c-.6-.78-1.21-1.55-1.8-2.33-2.81-3.72-6.58-4.12-10.12-.82-2.15 2-3.98 4.33-5.99 6.48-5.42 5.81-13.26 6.41-18.62 1.42-5.25-4.88-5.32-12.6-.13-18.44 4.13-4.64 8.28-9.26 12.46-13.85a33.59 33.59 0 0 1 17.6-10.65c5.34-1.29 10.97-.71 15.94 1.63 5.53 2.58 10 6.94 15.55 9.52-.88.65-1.09 2.45-2.82 1.66.31-.46.65-1.03.14-1.44-.81-.67-1.8-1.64-2.78-.4-.69.88-2.38 1.3-1.47 3.13 1.06 2.14 2.32.07 3.43.37-.24 1.58-1.55 2.3-2.6 3.23-2.49-1.88-2.81-5.28-5.19-7.27-9.44-7.89-21.08-7.94-30.63.37-6.25 5.44-11.43 11.97-16.78 18.28-2.52 3-2.18 7.47.76 10.05a7.439 7.439 0 0 0 10.36-.03c1.62-1.46 3.09-3.08 4.41-4.81 6.31-8.4 15.05-7.96 24.01-3.06" fill="#e59d09"/><path d="m279.6 136.97 6.45.04c4.27 1.82 6.42 5.25 7.31 9.63.94 4.33 1.52 8.73 1.73 13.15.1 2.89-.78 5.08-3.59 6.22l-4.28.64-9.2-.07-4.09-.76c-3.97-1.57-4.67-4.82-4.25-8.53.65-4.61 1.65-9.17 2.99-13.63.96-3.56 3.49-5.63 6.93-6.68" fill="#262e64"/><path d="M148.22 165.64c-.02-.57-.04-1.15-.07-1.72a116.82 116.82 0 0 0-6.22-33.53c1.37-.37 2.81-.38 4.18-.02 3.15 10.67 4.61 21.65 5.91 32.75.96-11.06 2.03-22.02 4.54-32.78a8.57 8.57 0 0 1 4.18.05c-2.64 9.69-4.22 19.65-4.7 29.68-.04.84-.32 1.72.23 2.52-.72 1.64-.59 3.4-.71 5.13.05.75-.52 1.39-1.27 1.44h-.17c-.98 0-1.21-.69-1.37-1.5-.23-1.18.58-2.67-1.09-3.55-.07.49-.16.9-.2 1.32-.11 1.22.47 2.97-1.43 3.1-1.94.14-1.48-1.74-1.82-2.89" fill="#e59d09"/><path d="M217.96 283.55c6.31-.91 12.72-.86 19.02.14 1.9.25 1.99 1.96 2.2 3.54.3 2.31-1.12 5.28.76 6.77 1.59 1.27 4.35 1.02 6.58 1.53 2.75.63 5.48 1.35 8.22 2.05.63.16 1.36.42 1.35 1.18-.01.86-.86.87-1.47.94-6.31.71-12.61.22-18.89-.4-1.77-.17-2.28-1.69-2.34-3.41-.09-2.47 1.12-5.65-.47-7.23-1.53-1.51-4.66-1.38-7.07-2.03-2.69-.73-5.47-1.22-7.88-3.08" fill="#28348b"/><path d="M181.54 258.34c.53.59 1.24.97 2.02 1.08 4.03 1.87 8.02 4 12.6 1.57.54-.36 1.27-.22 1.63.32.02.03.04.06.06.1.48.89-.13 1.47-.79 1.86a9.032 9.032 0 0 1-5.92 1.2c-1.6-.2-3.23-.24-4.84-.36-.11-1.73-1.31-.39-1.93-.68-.24-.15-.48-.31-.73-.45-.07.07-.13.15-.18.23l.83.32c.52.7 1.27.61 2 .6 2.68 2.05 6.05 2.97 9.4 2.58 3.54-.3 6.61.96 9.52 2.77.81.5 1.93 1.04 1.27 2.24-.7 1.28-1.7.57-2.46-.03-4.51-3.59-10.12-1.68-15.08-3.05-2.49-1.3-4.79-3.05-7.79-3.07l-.3-.81c-.13.07-.35.12-.36.21-.1.49.21.96.7 1.06.02 0 .05 0 .07.01l7.66 3.21c2.51 1.21 4.95 2.61 7.54 3.58 1.67.62 2.01 1.75 2.24 3.17l.03-.05c-1.25 0-2.47-.29-3.58-.87-5.46-2.54-10.96-5.01-16.44-7.51-.63-.23-1.25-.46-1.88-.68-.6-.4-1.18-.81-1.79-1.2-.53-.34-1.15-.67-1.02-1.41.17-1.01 1.1-.72 1.76-.88.35.47.88.82 1.15.09.37-.98-.37-1.25-1.2-1.29-1.39-1.61-.97-2.33 1.08-2.03.93.22 1.84.52 2.72.91.35.5 1.01.67 1.56.4l.21.36c0-.07.04-.18.01-.21-.08-.05-.18-.09-.27-.12-.13-.7-.69-.7-1.22-.75-.13-.17-.26-.33-.41-.48-.77-.74-2.7-.93-1.86-2.49.89-1.64 2.03-.08 3.04.27.31.11.62.19.93.28m-1.81 6.14-.28-.51c-.1.16-.27.32-.28.48s.15.34.24.51c.1-.16.21-.32.32-.48M160.4 164.24l-.39 1.6c-.72.79-.28 2.82-2.03 2.4-1.78-.43-1.14-2.09-.94-3.29.23-.82.56-1.6.98-2.34 5.04-7.09 12.32-7.95 20.08-6.95 3.58.41 6.56 2.95 7.55 6.41.75 2.26 1.31 4.59 1.9 6.9 1.49 5.82 3.18 7.26 9.18 7.76q2.5.21 2.01 2.27c-.05-.57.14-1.3-.79-1.34-.55-.02-.72.42-.62.82.21.9.9.53 1.47.46-.46 1.48-1.7 1.1-2.71 1.03-5.07-.32-8.55-2.86-10.25-7.67-.54-1.65-.98-3.33-1.33-5.03-1.42-6.13-3.56-8.58-8.13-9.24-6.96-1-13.2 1.42-15.98 6.2" fill="#e59d09"/><path d="M232.82 268.76c-2.46-.01-3.16-1.42-3.55-2.92-.6-2.26-1.61-3.28-4.09-2.32-1.47.57-3.97 1.45-4.5.21-.76-1.75 1.82-2.49 3.03-3.59.84-.69 1.75-1.31 2.7-1.84 4.07-2.51 4.97-2.32 6.82 2.01.68 1.59 1.34 1.94 2.9 1.29a19.1 19.1 0 0 1 3.8-.9c.89-.16 2.06-.96 2.6.31.48 1.14-.76 1.69-1.44 2.3a30.823 30.823 0 0 1-8.27 5.45M221 310.49c0 1.06.02 1.17 0 1.28-.2 1.12.57 2.8-.76 3.23-1.65.54-1.97-1.39-2.54-2.4-1.47-2.58-2.24-5.77-6.25-5.52-.69.04-1.35-.71-1.56-1.5-.79-2.83-1.18-5.76-1.15-8.7 0-.55.08-1.16.68-1.35s1.01.23 1.34.7c.54.68 1.02 1.4 1.45 2.16 1.05 2.28 2.27 4.06 5.27 3.84 1.58-.12 2.51 1.2 2.76 2.73.36 2.14.61 4.3.77 5.52" fill="#28348b"/><path d="M158.02 162.62c-.42.74-.75 1.52-.98 2.34-.21 1.2-.84 2.86.94 3.29 1.75.42 1.31-1.61 2.03-2.4 1.89 1.62.74 2.65-.78 3.38a12.492 12.492 0 0 1-10.98.2c-2.34-1.06-2.62-2.5-.02-3.78.34 1.15-.12 3.03 1.82 2.89 1.9-.13 1.32-1.88 1.43-3.1.04-.42.12-.83.2-1.32 1.67.89.86 2.38 1.09 3.55.16.81.39 1.5 1.37 1.5.75.04 1.39-.53 1.44-1.27v-.17c.13-1.73 0-3.49.71-5.13l1.74.03" fill="#fdfdfe"/><g clip-path="url(#c)" opacity=".25"><path d="m287.21 166.66 4.28-.64c-.02 1.53.03 3.06-.08 4.58.07 1.08-.75 2.01-1.83 2.07h-.24c-1.12.03-2.05-.84-2.08-1.96v-.13c-.08-1.3-.04-2.62-.05-3.93" fill="#474747"/></g><g clip-path="url(#d)" opacity=".25"><path d="m273.92 165.82 4.09.76c0 1.19-.02 2.38-.02 3.57 0 1.35-.47 2.42-1.95 2.48-1.7.06-2.17-1.12-2.16-2.59l.03-4.22" fill="#474747"/></g><path d="M198.72 275.99c1.48-1.23 4.87-.64 5.59.95.21.39.15.86-.15 1.19-.35.45-.96.6-1.47.36-1.44-.63-3.16-.88-3.94-2.55l-.03.05" fill="#e59d09"/><path d="m188.93 269.25-7.66-3.21c-.04-.16-.08-.32-.1-.48 2.99.01 5.3 1.77 7.79 3.07 0 .21-.02.42-.02.62" fill="#fdfdfe"/><path d="M98.79 235.13c0-.2-.1-.4-.27-.51l.27.51" fill="#133454"/><path d="M156.57 130.34c-2.51 10.76-3.59 21.71-4.54 32.78-1.3-11.1-2.76-22.08-5.91-32.75 3.48-.32 6.98-.33 10.46-.03" fill="#fdfdfe"/><path d="M42.86 48.41c-1.56.36-2.96-.12-3.12-1.72 0-1.45 1.03-2.71 2.45-2.98.88-.27 1.81.24 2.08 1.12.12.41.08.86-.11 1.24l.06-.05c-.53.31-1.08.61-.68 1.38l.04-.06c-.74 0-1 .34-.69 1.04l-.03.03ZM61.91 27.06c-1.11-.3-2.37 1.77-3.43-.37-.91-1.84.78-2.26 1.47-3.14.97-1.24 1.97-.26 2.78.4.51.42.17.98-.14 1.44h-.04c-.33.52-1.23.83-.66 1.7l.03-.04Z" fill="#152f4c"/><path d="M61.88 27.1c-.56-.87.33-1.18.66-1.7.88 1 .12 1.35-.66 1.7M43.54 47.4c-.4-.77.14-1.07.68-1.38.48.81-.17 1.06-.68 1.38" fill="#e95029"/><path d="M42.89 48.39c-.3-.7-.05-1.04.69-1.04-.23.35-.46.7-.69 1.04" fill="#e95029"/><path d="M294.68 16.75c.06.07.17.15.17.22s-.12.14-.19.21c-.06-.08-.17-.15-.17-.23s.12-.14.19-.2M179.55 261.07c-.88-.38-1.78-.69-2.72-.91-2.05-.3-2.47.42-1.08 2.03l.05 1.2c-.66.15-1.59-.14-1.76.88-.12.73.5 1.06 1.02 1.4.6.39 1.19.8 1.79 1.2-3.1.5-4.38-.44-4.34-3.35a7.454 7.454 0 0 1 4-6.64c2.04-1.18 3.96-1.13 5.03 1.45-.31-.09-.63-.17-.93-.28-1.01-.35-2.15-1.92-3.04-.27-.84 1.56 1.09 1.75 1.86 2.49.15.15.28.32.41.49-.1.1-.19.21-.29.31" fill="#fdfdfe"/><path d="m175.8 263.39-.05-1.2c.83.04 1.56.32 1.2 1.29-.27.72-.79.38-1.15-.09M184.38 263.43c.62.29 1.82-1.05 1.93.68-.73.02-1.48.11-2-.59l.08-.09ZM179.73 264.48c-.11.16-.21.32-.32.48-.09-.17-.25-.34-.24-.51s.18-.32.28-.48l.28.51M181.17 265.56c.03.16.06.32.1.48a.903.903 0 0 1-.78-1.01c0-.02 0-.05.01-.07.01-.09.24-.14.36-.21l.3.81M184.29 263.52l-.83-.32c.05-.08.11-.16.18-.23.25.14.49.3.73.45l-.08.1" fill="#f3b012"/><path d="M179.84 260.77c.53.05 1.09.05 1.22.75l.05-.04c-.55.27-1.21.1-1.56-.4.1-.1.19-.2.29-.31" fill="#fdfdfe"/><path d="M181.06 261.51c.1.03.19.07.27.12.03.03 0 .14-.01.21l-.21-.36-.05.04" fill="#fdfdfe"/><path d="M198.79 178.95c-.56.07-1.26.45-1.47-.46-.09-.4.07-.85.62-.82.93.04.74.77.79 1.34l.06-.06" fill="#fff"/><path fill="none" stroke="#1a2d4d" stroke-miterlimit="10" d="M260.02 190.71h52.38v52.38h-52.38z"/><path d="M275.95 212.6a4.6 4.6 0 1 1-9.201-.001 4.6 4.6 0 0 1 9.201.001M305.59 212.73a4.6 4.6 0 1 1-9.201-.001 4.6 4.6 0 0 1 9.201.001" fill="#f08207"/></g></g></svg>