<svg xmlns="http://www.w3.org/2000/svg" xmlns:xlink="http://www.w3.org/1999/xlink" version="1.1" x="0px" y="0px" viewBox="0 0 100 100" style="enable-background:new 0 0 100 100;" xml:space="preserve"><g><path d="M50,74c0,0,21.7-15.6,21.7-37.3C71.7,24.7,62,15,50,15s-21.7,9.7-21.7,21.7C28.3,58.4,50,74,50,74z M50,27.8   c4.4,0,7.9,3.5,7.9,7.9c0,4.4-3.5,7.9-7.9,7.9s-7.9-3.5-7.9-7.9C42.1,31.3,45.6,27.8,50,27.8z"></path><path d="M67.1,63.5c-6.4,8.8-13.7,14.1-14.2,14.5L50,80.2l-2.9-2.1c-0.5-0.4-7.8-5.7-14.2-14.5c-8.3,2.5-13.8,6.8-13.8,11.6   c0,7.7,13.8,14,30.9,14s30.9-6.2,30.9-14C80.9,70.3,75.4,66,67.1,63.5z"></path></g></svg>