<svg xmlns="http://www.w3.org/2000/svg" xmlns:xlink="http://www.w3.org/1999/xlink" version="1.1" x="0px" y="0px" viewBox="0 0 64 64" style="enable-background:new 0 0 64 64;" xml:space="preserve"><path d="M41.8,32L37,31.2v-3.7c2.4-1.6,4-4.4,4-7.5c0-0.6-0.4-1-1-1s-1,0.4-1,1c0,3.9-3.1,7-7,7c-3.9,0-7-3.1-7-7c0-0.6-0.4-1-1-1  s-1,0.4-1,1c0,3.1,1.6,5.9,4,7.5v3.7L22.2,32C18,32.6,15,36.2,15,40.5v6.1c0,0.6,0.4,1,1,1s1-0.4,1-1v-6.1c0-3.3,2.3-6,5.5-6.5  l5.2-0.9c1.2,1.1,2.8,1.6,4.3,1.6c1.5,0,3.1-0.5,4.3-1.6l5.2,0.9c3.2,0.5,5.5,3.3,5.5,6.5V61h-4V46c0-0.6-0.4-1-1-1s-1,0.4-1,1v15  H23v-2h10c2.2,0,4-1.8,4-4c0-1.5-0.8-2.8-2-3.4v-4.8c1.5-0.5,2.5-2,2.5-3.6V41c0-2.2-1.8-4-4-4c-0.6,0-1,0.4-1,1v2.5  c0,0.3-0.2,0.5-0.5,0.5c-0.3,0-0.5-0.2-0.5-0.5V38c0-0.6-0.4-1-1-1c-2.2,0-4,1.8-4,4v2.2c0,1.6,1,3.1,2.5,3.6V51h-6v-7  c0-0.6-0.4-1-1-1s-1,0.4-1,1v8c0,0.6,0.4,1,1,1h11c1.1,0,2,0.9,2,2s-0.9,2-2,2H19c-1.1,0-2-0.9-2-2c0-0.6-0.4-1-1-1s-1,0.4-1,1  c0,2.2,1.8,4,4,4h2v3c0,0.6,0.4,1,1,1h26c0.6,0,1-0.4,1-1V40.5C49,36.2,46,32.6,41.8,32z M35,31.5c-1.7,1.5-4.3,1.5-6,0v-3.1  c0.9,0.3,1.9,0.5,3,0.5c1.1,0,2.1-0.2,3-0.5V31.5z M33.9,45C33.4,45,33,45.5,33,46v5h-2v-5c0-0.5-0.4-0.9-0.9-1  c-0.9-0.1-1.6-0.9-1.6-1.8V41c0-0.7,0.4-1.4,1-1.7v1.2c0,1.4,1.1,2.5,2.5,2.5c1.4,0,2.5-1.1,2.5-2.5v-1.2c0.6,0.3,1,1,1,1.7v2.2  C35.5,44.1,34.8,44.9,33.9,45z"></path><path d="M16,53c0.6,0,1-0.4,1-1v-1.7c0-0.6-0.4-1-1-1s-1,0.4-1,1V52C15,52.6,15.4,53,16,53z"></path><path d="M24.3,17.4c1,1.4,3.1,1.2,3.4,1.1c2.8-0.9,5.8-0.9,8.6,0c1.2,0.4,2.6,0,3.4-1.1c0,0,2.3-3.4,2.3-3.4v-3  c0-1.9-0.6-3.8-1.6-5.4C40.1,5.1,39.5,5,39,5.3c-0.5,0.3-0.6,0.9-0.3,1.4C39.6,8,40,9.5,40,11v1.5c-5.2-1.9-10.8-1.9-16,0V11  c0-4.4,3.6-8,8-8c1.3,0,2.4,0.3,3.6,0.8c0.5,0.2,1.1,0,1.3-0.5s0-1.1-0.5-1.3c-1.4-0.7-2.9-1-4.4-1c-5.5,0-10,4.5-10,10v3  C22,14,24.3,17.4,24.3,17.4z M39.4,14.4l-1.3,1.8c-0.3,0.4-0.7,0.5-1.2,0.4c-1.6-0.5-3.2-0.8-4.9-0.8c-1.7,0-3.3,0.3-4.9,0.8  c-0.4,0.1-0.9,0-1.2-0.4l-1.3-1.8C29.4,12.6,34.6,12.6,39.4,14.4z"></path><path d="M30,7c-0.6,0-1,0.4-1,1s0.4,1,1,1h4c0.6,0,1-0.4,1-1s-0.4-1-1-1H30z"></path></svg>