<svg xmlns="http://www.w3.org/2000/svg" xmlns:xlink="http://www.w3.org/1999/xlink" version="1.1" x="0px" y="0px" viewBox="0 0 100 100" style="enable-background:new 0 0 100 100;" xml:space="preserve"><g><path d="M42.2,44c-1.1,0-2,0.9-2,2v8c0,1.1,0.9,2,2,2s2-0.9,2-2v-8C44.2,44.9,43.3,44,42.2,44z"></path><path d="M41.5,68.8H25.7c-1.1,0-2,0.9-2,2s0.9,2,2,2h15.8c1.1,0,2-0.9,2-2S42.7,68.8,41.5,68.8z"></path><path d="M41.5,76.8H25.7c-1.1,0-2,0.9-2,2s0.9,2,2,2h15.8c1.1,0,2-0.9,2-2S42.7,76.8,41.5,76.8z"></path><path d="M82.7,10.7H50H17.3c-1.1,0-2,0.9-2,2v74.6c0,1.1,0.9,2,2,2H50h32.7c1.1,0,2-0.9,2-2V12.7C84.7,11.6,83.8,10.7,82.7,10.7z    M19.3,14.7H48v70.6H19.3V14.7z M80.7,85.3H52V14.7h28.7V85.3z"></path><path d="M74.9,56c1.1,0,2-0.9,2-2v-8c0-1.1-0.9-2-2-2s-2,0.9-2,2v8C72.9,55.1,73.8,56,74.9,56z"></path><path d="M58.5,72.8h15.8c1.1,0,2-0.9,2-2s-0.9-2-2-2H58.5c-1.1,0-2,0.9-2,2S57.3,72.8,58.5,72.8z"></path><path d="M58.5,80.8h15.8c1.1,0,2-0.9,2-2s-0.9-2-2-2H58.5c-1.1,0-2,0.9-2,2S57.3,80.8,58.5,80.8z"></path></g></svg>