<svg xmlns:x="http://ns.adobe.com/Extensibility/1.0/" xmlns:i="http://ns.adobe.com/AdobeIllustrator/10.0/" xmlns:graph="http://ns.adobe.com/Graphs/1.0/" xmlns="http://www.w3.org/2000/svg" xmlns:xlink="http://www.w3.org/1999/xlink" xmlns:a="http://ns.adobe.com/AdobeSVGViewerExtensions/3.0/" version="1.1" x="0px" y="0px" viewBox="0 0 100 100" enable-background="new 0 0 100 100" xml:space="preserve"><g><g><path d="M55.82,57.612c0-1.32,0-36.178,0-36.178C55.82,15.131,51.399,10,45.97,10h-0.747c-5.436,0-9.854,5.131-9.854,11.434    c0,0,0,35.14,0,36.424c-4.684,3.35-7.482,8.65-7.482,14.366C27.887,82.028,35.905,90,45.769,90c9.859,0,17.88-7.972,17.88-17.775    C63.648,66.33,60.725,60.939,55.82,57.612z M45.769,87.046c-8.232,0-14.909-6.635-14.909-14.821c0-5.493,3.013-10.283,7.48-12.844    V21.435c0-4.685,3.079-8.479,6.883-8.479h0.747c3.797,0,6.877,3.794,6.877,8.479v37.753c4.663,2.502,7.831,7.405,7.831,13.037    C60.678,80.411,53.998,87.046,45.769,87.046z"></path></g><path d="M50.532,63.448l-2.559-1.376V21.435c0-2.186-1.207-3.633-2.004-3.633h-0.747c-0.803,0-2.003,1.447-2.003,3.633v8.904h2.86   c0.479,0,0.863,0.382,0.863,0.857c0,0.468-0.384,0.854-0.863,0.854h-2.86v4.554h2.86c0.479,0,0.863,0.386,0.863,0.861   c0,0.466-0.384,0.851-0.863,0.851h-2.86v4.562h2.86c0.479,0,0.863,0.383,0.863,0.853c0,0.475-0.384,0.857-0.863,0.857h-2.86v4.557   h2.86c0.479,0,0.863,0.383,0.863,0.855c0,0.474-0.384,0.854-0.863,0.854h-2.86v11.332l-2.446,1.396   c-3.107,1.778-5.038,5.094-5.038,8.644c0,5.502,4.499,9.975,10.033,9.975c5.531,0,10.031-4.473,10.031-9.975   C55.8,68.563,53.778,65.195,50.532,63.448z"></path></g></svg>