<svg xmlns="http://www.w3.org/2000/svg" xmlns:xlink="http://www.w3.org/1999/xlink" version="1.1" x="0px" y="0px" viewBox="0 0 64 64" style="enable-background:new 0 0 64 64;" xml:space="preserve"><g><g><path d="M32.023,14c-10.477,0-19,8.523-19,19s8.523,19,19,19s19-8.523,19-19S42.5,14,32.023,14z M41.716,43.103l-1.385-1.443    c2.381-2.285,3.692-5.36,3.692-8.659c0-1.945-0.466-3.784-1.291-5.41c-0.027,1.462-0.15,3.094-1.782,4.724    c-1.738,1.738-3.476,1.76-5.009,1.778c-1.373,0.018-2.457,0.031-3.619,1.193c-1.161,1.161-1.174,2.245-1.19,3.617    c-0.019,1.532-0.04,3.27-1.776,5.006c-0.227,0.227-0.459,0.43-0.699,0.61C29.726,44.832,30.855,45,32.023,45    c2.299,0,4.533-0.652,6.46-1.886l1.078,1.686c-2.25,1.439-4.856,2.2-7.539,2.2c-3.257,0-6.258-1.118-8.639-2.991    c-2.889-2.258-4.774-5.55-5.245-9.204c-0.001-0.011-0.003-0.022-0.004-0.033c-0.006-0.047-0.012-0.095-0.017-0.142    c-0.003-0.022-0.005-0.043-0.007-0.065c-0.005-0.044-0.01-0.087-0.014-0.131c-0.006-0.062-0.012-0.125-0.018-0.187    c-0.002-0.027-0.005-0.054-0.007-0.081c-0.004-0.047-0.008-0.094-0.011-0.141c-0.002-0.027-0.004-0.054-0.006-0.081    c-0.004-0.054-0.007-0.107-0.01-0.161c-0.001-0.019-0.002-0.038-0.003-0.057c-0.004-0.071-0.007-0.141-0.009-0.212    c-0.001-0.02-0.001-0.04-0.002-0.061c-0.002-0.056-0.003-0.112-0.004-0.168c0-0.022-0.001-0.043-0.001-0.065    c-0.001-0.073-0.002-0.147-0.002-0.22c0-7.72,6.28-14,14-14c0.062,0,0.125,0,0.187,0.001c0.025,0,0.05,0.001,0.076,0.001    c0.038,0.001,0.077,0.001,0.115,0.002c0.028,0.001,0.056,0.002,0.083,0.003c0.034,0.001,0.068,0.002,0.101,0.004    c0.029,0.001,0.058,0.003,0.087,0.004c0.036,0.002,0.071,0.003,0.107,0.005c0.025,0.001,0.05,0.003,0.075,0.004    c0.037,0.002,0.075,0.004,0.112,0.007c0.028,0.002,0.055,0.004,0.083,0.006c0.033,0.002,0.066,0.005,0.1,0.008    c0.03,0.002,0.06,0.005,0.091,0.008c0.031,0.003,0.062,0.006,0.093,0.008c0.031,0.003,0.062,0.006,0.092,0.009    c0.03,0.003,0.06,0.006,0.09,0.009c0.034,0.004,0.067,0.007,0.1,0.011c0.02,0.002,0.04,0.005,0.06,0.007    c0.043,0.005,0.085,0.01,0.128,0.015c0.005,0.001,0.009,0.001,0.014,0.002c3.516,0.45,6.736,2.216,9.024,4.998    c0.023,0.028,0.043,0.057,0.063,0.086c1.95,2.406,3.12,5.47,3.12,8.801C46.023,36.849,44.493,40.437,41.716,43.103z M40.023,37v-2    h2v2H40.023z M37.023,36v2h-2v-2H37.023z M35.023,41v2h-2v-2H35.023z"></path><path d="M33.856,21.14c-0.005-0.001-0.01-0.002-0.016-0.002c-0.091-0.014-0.183-0.027-0.275-0.039    c-0.011-0.001-0.023-0.003-0.034-0.004c-0.09-0.011-0.18-0.022-0.271-0.031c-0.01-0.001-0.019-0.002-0.029-0.003    c-0.091-0.009-0.182-0.017-0.273-0.024c-0.012-0.001-0.024-0.002-0.035-0.003c-0.091-0.007-0.182-0.013-0.274-0.017    c-0.009,0-0.018-0.001-0.028-0.001c-0.094-0.005-0.189-0.008-0.284-0.011c-0.005,0-0.01,0-0.016,0    C32.222,21.001,32.123,21,32.023,21c-6.617,0-12,5.383-12,12c0,0.092,0.001,0.183,0.003,0.274c0,0.024,0.001,0.047,0.002,0.071    c0.003,0.09,0.006,0.181,0.01,0.27c0,0.002,0,0.003,0,0.005c0.005,0.091,0.011,0.181,0.017,0.271    c0.001,0.02,0.003,0.04,0.005,0.059c0.015,0.189,0.034,0.376,0.057,0.562c0.001,0.008,0.002,0.017,0.003,0.025    c0.383,2.982,1.866,5.625,4.026,7.508c0.021,0.018,0.043,0.037,0.064,0.055c0.024,0.021,0.049,0.042,0.074,0.063    c0.599,0.504,1.253,0.954,1.956,1.341c0.644-0.17,1.179-0.489,1.7-1.011c1.161-1.161,1.173-2.244,1.19-3.616    c0.019-1.533,0.04-3.271,1.776-5.007c1.738-1.738,3.476-1.76,5.009-1.778c1.373-0.018,2.457-0.031,3.619-1.193    c1.165-1.165,1.181-2.251,1.2-3.626c0.01-0.702,0.022-1.479,0.215-2.282C39.141,22.974,36.656,21.571,33.856,21.14z     M26.257,37.259c-0.068,0.256-0.236,0.475-0.466,0.607C25.638,37.954,25.465,38,25.291,38c-0.087,0-0.174-0.012-0.259-0.034    l-2.732-0.732l0.518-1.932l1.766,0.474l0.473-1.767l1.932,0.518L26.257,37.259z M25.782,31.832    c-0.085,0.022-0.172,0.034-0.259,0.034c-0.174,0-0.347-0.046-0.5-0.134c-0.229-0.133-0.397-0.352-0.466-0.607l-0.732-2.732    l1.932-0.518l0.473,1.767l1.766-0.474l0.518,1.932L25.782,31.832z M32.523,30c-1.93,0-3.5-1.57-3.5-3.5s1.57-3.5,3.5-3.5    s3.5,1.57,3.5,3.5S34.453,30,32.523,30z"></path><circle cx="32.523" cy="26.5" r="1.5"></circle></g><g><path d="M7.023,6c-3.925,0-7,4.832-7,11c0,0.087,0.001,0.173,0.002,0.259c0,0.024,0.001,0.047,0.001,0.071    c0.001,0.066,0.003,0.131,0.005,0.197c0.001,0.023,0.001,0.045,0.002,0.068c0.003,0.082,0.006,0.164,0.01,0.245    c0.001,0.023,0.002,0.045,0.003,0.068c0.003,0.063,0.007,0.125,0.01,0.188c0.002,0.027,0.003,0.055,0.005,0.082    c0.005,0.074,0.01,0.147,0.016,0.22c0.001,0.009,0.001,0.018,0.002,0.027c0.006,0.081,0.014,0.163,0.021,0.244    c0.002,0.025,0.005,0.05,0.007,0.076c0.006,0.06,0.012,0.12,0.018,0.179c0.003,0.024,0.005,0.048,0.008,0.072    c0.009,0.079,0.018,0.157,0.028,0.235c0.002,0.019,0.005,0.038,0.008,0.057c0.008,0.061,0.016,0.122,0.025,0.183    c0.004,0.027,0.008,0.054,0.012,0.081c0.01,0.067,0.02,0.134,0.031,0.201c0.002,0.011,0.003,0.023,0.005,0.034    c0.012,0.078,0.025,0.155,0.039,0.232c0.004,0.023,0.008,0.047,0.013,0.07c0.011,0.059,0.022,0.118,0.033,0.177    c0.004,0.021,0.008,0.043,0.012,0.064c0.015,0.076,0.03,0.152,0.046,0.228c0.003,0.012,0.005,0.024,0.008,0.036    c0.014,0.065,0.028,0.129,0.042,0.193c0.005,0.024,0.011,0.048,0.017,0.072c0.014,0.059,0.028,0.117,0.042,0.175    c0.004,0.017,0.008,0.034,0.012,0.05c0.018,0.073,0.037,0.146,0.056,0.219c0.005,0.019,0.01,0.038,0.015,0.058    c0.015,0.057,0.031,0.114,0.047,0.17c0.006,0.02,0.011,0.04,0.017,0.06c0.021,0.072,0.042,0.144,0.063,0.215    c0.003,0.009,0.005,0.017,0.008,0.026c0.019,0.063,0.039,0.126,0.059,0.188c0.007,0.022,0.014,0.043,0.021,0.065    c0.019,0.057,0.038,0.114,0.057,0.171c0.004,0.013,0.009,0.027,0.013,0.04c0.024,0.069,0.048,0.138,0.072,0.206    c0.007,0.019,0.014,0.037,0.02,0.055c0.019,0.051,0.038,0.103,0.057,0.154c0.008,0.02,0.015,0.04,0.023,0.06    c0.024,0.064,0.049,0.127,0.075,0.19c0.003,0.009,0.007,0.017,0.01,0.026c0.024,0.06,0.049,0.12,0.075,0.18    c0.009,0.021,0.017,0.041,0.026,0.061c0.02,0.047,0.041,0.094,0.062,0.141c0.008,0.019,0.017,0.038,0.025,0.057    c0.028,0.062,0.056,0.123,0.085,0.184c0.008,0.016,0.015,0.032,0.023,0.048c0.022,0.047,0.045,0.094,0.068,0.14    c0.011,0.022,0.021,0.043,0.032,0.065c0.025,0.049,0.05,0.099,0.075,0.147c0.006,0.011,0.011,0.022,0.017,0.033    c0.03,0.058,0.061,0.115,0.092,0.172c0.011,0.019,0.021,0.039,0.032,0.058c0.024,0.043,0.047,0.085,0.071,0.127    c0.009,0.017,0.019,0.033,0.028,0.05c0.033,0.056,0.065,0.112,0.099,0.167c0.009,0.015,0.018,0.029,0.027,0.043    c0.026,0.042,0.051,0.083,0.077,0.124c0.012,0.019,0.024,0.038,0.036,0.057c0.027,0.042,0.055,0.085,0.082,0.126    c0.008,0.013,0.017,0.026,0.025,0.038c0.034,0.051,0.069,0.101,0.104,0.151c0.012,0.018,0.025,0.035,0.037,0.053    c0.026,0.036,0.052,0.072,0.078,0.108c0.012,0.017,0.025,0.034,0.037,0.05c0.036,0.048,0.072,0.096,0.108,0.143    c0.01,0.013,0.021,0.026,0.031,0.04c0.029,0.037,0.057,0.073,0.086,0.109c0.013,0.016,0.026,0.032,0.039,0.048    c0.031,0.038,0.062,0.075,0.093,0.111c0.009,0.01,0.018,0.021,0.027,0.032c0.039,0.045,0.078,0.089,0.117,0.133    c0.013,0.014,0.026,0.028,0.039,0.042C3,26.056,3.029,26.087,3.058,26.118c0.014,0.015,0.028,0.03,0.042,0.044    c0.039,0.041,0.079,0.082,0.119,0.122c0.009,0.009,0.018,0.017,0.027,0.026c0.034,0.034,0.069,0.068,0.104,0.101    c0.013,0.012,0.026,0.025,0.039,0.037c0.034,0.032,0.068,0.063,0.102,0.093c0.01,0.009,0.02,0.019,0.031,0.028    c0.042,0.037,0.084,0.074,0.127,0.11c0.014,0.011,0.027,0.023,0.041,0.034c0.032,0.027,0.064,0.053,0.096,0.079    c0.015,0.012,0.029,0.023,0.044,0.035C4.781,27.579,5.865,28,7.023,28s2.242-0.421,3.195-1.172    c0.015-0.012,0.029-0.023,0.044-0.035c0.032-0.026,0.064-0.052,0.096-0.079c0.014-0.011,0.027-0.023,0.041-0.034    c0.043-0.036,0.085-0.073,0.127-0.11c0.01-0.009,0.02-0.018,0.031-0.028c0.034-0.031,0.068-0.062,0.102-0.093    c0.013-0.012,0.026-0.025,0.039-0.037c0.035-0.033,0.069-0.067,0.104-0.101c0.009-0.009,0.018-0.017,0.027-0.026    c0.04-0.04,0.08-0.081,0.119-0.122c0.014-0.015,0.028-0.029,0.042-0.044c0.029-0.031,0.058-0.062,0.087-0.094    c0.013-0.014,0.026-0.028,0.039-0.042c0.039-0.044,0.078-0.088,0.117-0.133c0.009-0.01,0.018-0.021,0.027-0.032    c0.031-0.037,0.062-0.074,0.093-0.111c0.013-0.016,0.026-0.032,0.039-0.048c0.029-0.036,0.058-0.072,0.086-0.109    c0.01-0.013,0.021-0.026,0.031-0.04c0.036-0.047,0.072-0.095,0.108-0.143c0.012-0.017,0.025-0.034,0.037-0.05    c0.026-0.036,0.052-0.072,0.078-0.108c0.012-0.018,0.025-0.035,0.037-0.053c0.035-0.05,0.069-0.1,0.104-0.151    c0.008-0.013,0.017-0.026,0.025-0.038c0.028-0.042,0.055-0.084,0.082-0.126c0.012-0.019,0.024-0.038,0.036-0.057    c0.026-0.041,0.052-0.083,0.077-0.124c0.009-0.014,0.018-0.029,0.027-0.043c0.033-0.055,0.066-0.111,0.099-0.167    c0.01-0.016,0.019-0.033,0.028-0.05c0.024-0.042,0.048-0.084,0.071-0.127c0.011-0.019,0.022-0.039,0.032-0.058    c0.031-0.057,0.062-0.114,0.092-0.172c0.006-0.011,0.011-0.022,0.017-0.033c0.025-0.049,0.05-0.098,0.075-0.147    c0.011-0.021,0.021-0.043,0.032-0.065c0.023-0.046,0.045-0.093,0.068-0.14c0.008-0.016,0.015-0.032,0.023-0.048    c0.029-0.061,0.057-0.122,0.085-0.184c0.008-0.019,0.017-0.038,0.025-0.057c0.021-0.047,0.041-0.094,0.062-0.141    c0.009-0.02,0.018-0.041,0.026-0.061c0.025-0.06,0.05-0.119,0.075-0.18c0.003-0.009,0.007-0.017,0.01-0.026    c0.025-0.063,0.05-0.126,0.075-0.19c0.008-0.02,0.015-0.04,0.023-0.06c0.019-0.051,0.038-0.102,0.057-0.154    c0.007-0.018,0.014-0.037,0.02-0.055c0.025-0.068,0.049-0.137,0.072-0.206c0.005-0.013,0.009-0.027,0.013-0.04    c0.019-0.057,0.038-0.114,0.057-0.171c0.007-0.022,0.014-0.043,0.021-0.065c0.02-0.062,0.039-0.125,0.059-0.188    c0.003-0.009,0.005-0.017,0.008-0.026c0.021-0.071,0.042-0.143,0.063-0.215c0.006-0.02,0.011-0.04,0.017-0.06    c0.016-0.056,0.031-0.113,0.047-0.17c0.005-0.019,0.01-0.038,0.015-0.058c0.019-0.073,0.038-0.145,0.056-0.219    c0.004-0.017,0.008-0.034,0.012-0.05c0.014-0.058,0.028-0.117,0.042-0.175c0.006-0.024,0.011-0.048,0.017-0.072    c0.014-0.064,0.029-0.128,0.042-0.193c0.003-0.012,0.005-0.024,0.008-0.036c0.016-0.075,0.031-0.151,0.046-0.228    c0.004-0.021,0.008-0.043,0.012-0.064c0.011-0.059,0.022-0.117,0.033-0.177c0.004-0.023,0.008-0.047,0.013-0.07    c0.013-0.077,0.026-0.154,0.039-0.232c0.002-0.011,0.003-0.023,0.005-0.034c0.011-0.067,0.021-0.134,0.031-0.201    c0.004-0.027,0.008-0.054,0.012-0.081c0.009-0.061,0.017-0.122,0.025-0.183c0.003-0.019,0.005-0.038,0.008-0.057    c0.01-0.078,0.019-0.157,0.028-0.235c0.003-0.024,0.005-0.048,0.008-0.072c0.006-0.06,0.013-0.119,0.018-0.179    c0.003-0.025,0.005-0.05,0.007-0.076c0.008-0.081,0.015-0.162,0.021-0.244c0.001-0.009,0.001-0.018,0.002-0.027    c0.006-0.073,0.011-0.146,0.016-0.22c0.002-0.027,0.003-0.055,0.005-0.082c0.004-0.062,0.007-0.125,0.01-0.188    c0.001-0.023,0.002-0.045,0.003-0.068c0.004-0.082,0.007-0.163,0.01-0.245c0.001-0.023,0.001-0.045,0.002-0.068    c0.002-0.065,0.003-0.131,0.005-0.197c0-0.024,0.001-0.047,0.001-0.071c0.001-0.086,0.002-0.172,0.002-0.259    C14.023,10.832,10.949,6,7.023,6z"></path><path d="M10.231,29.18C9.239,29.711,8.159,30,7.023,30s-2.215-0.289-3.207-0.82L2.16,54.847c-0.106,1.646,0.619,3.22,1.942,4.212    c0.859,0.645,1.89,0.967,2.92,0.967c1.032,0,2.064-0.323,2.926-0.97c1.32-0.989,2.044-2.562,1.938-4.209L10.231,29.18z"></path></g><g><path d="M60.351,30.868C59.907,30.956,59.456,31,59,31h-3.954c-0.37,0-0.737-0.029-1.1-0.087l-1.659,23.934    c-0.106,1.646,0.618,3.22,1.941,4.212c0.859,0.645,1.89,0.967,2.92,0.967c1.032,0,2.064-0.323,2.926-0.97    c1.32-0.989,2.044-2.562,1.938-4.214L60.351,30.868z"></path><path d="M51.456,27.48c0.01,0.011,0.021,0.021,0.032,0.032c0.031,0.032,0.063,0.063,0.095,0.094    c0.016,0.016,0.032,0.031,0.049,0.047c0.029,0.027,0.058,0.053,0.087,0.079c0.034,0.03,0.068,0.059,0.102,0.088    c0.023,0.02,0.046,0.039,0.07,0.058c0.028,0.022,0.056,0.044,0.084,0.066c0.018,0.014,0.036,0.028,0.054,0.042    c0.029,0.022,0.059,0.044,0.089,0.066c0.015,0.011,0.03,0.021,0.045,0.032c0.104,0.073,0.21,0.142,0.319,0.207    c0.019,0.011,0.038,0.023,0.057,0.034c0.029,0.017,0.059,0.034,0.089,0.05c0.024,0.013,0.048,0.026,0.072,0.039    c0.028,0.015,0.055,0.029,0.083,0.044c0.047,0.024,0.093,0.047,0.141,0.069c0.023,0.011,0.046,0.021,0.069,0.031    c0.034,0.015,0.068,0.031,0.102,0.045c0.024,0.01,0.048,0.02,0.073,0.03c0.032,0.013,0.065,0.026,0.097,0.038    c0.025,0.009,0.049,0.019,0.074,0.028c0.049,0.018,0.098,0.035,0.148,0.051c0.01,0.003,0.019,0.006,0.029,0.01    c0.186,0.06,0.376,0.109,0.569,0.147l0,0.001C54.401,28.969,54.722,29,55.046,29H59c0.409,0,0.815-0.05,1.211-0.15v0    c0.118-0.03,0.235-0.063,0.351-0.102c0.003-0.001,0.005-0.002,0.007-0.002c0.051-0.017,0.101-0.035,0.151-0.053    c0.017-0.006,0.033-0.013,0.05-0.019c0.039-0.015,0.079-0.03,0.118-0.046c0.015-0.006,0.029-0.012,0.044-0.018    c0.042-0.018,0.083-0.036,0.125-0.054c0.012-0.005,0.024-0.01,0.035-0.016c0.106-0.049,0.21-0.101,0.312-0.157    c0.014-0.008,0.027-0.015,0.041-0.023c0.036-0.02,0.071-0.04,0.106-0.061c0.019-0.011,0.038-0.023,0.057-0.034    c0.03-0.018,0.06-0.037,0.09-0.056c0.02-0.013,0.04-0.026,0.059-0.039c0.029-0.019,0.057-0.038,0.086-0.058    c0.019-0.013,0.038-0.026,0.057-0.039c0.032-0.023,0.065-0.047,0.097-0.071c0.014-0.01,0.028-0.021,0.042-0.031    c0.043-0.033,0.085-0.066,0.127-0.101c0.019-0.016,0.038-0.032,0.057-0.048c0.026-0.022,0.051-0.043,0.076-0.065    c0.018-0.016,0.036-0.032,0.055-0.049c0.026-0.023,0.051-0.047,0.076-0.07c0.016-0.015,0.032-0.031,0.048-0.046    c0.028-0.027,0.055-0.054,0.082-0.081c0.014-0.014,0.028-0.029,0.042-0.043c0.04-0.041,0.079-0.083,0.117-0.125    c0.947-1.054,1.403-2.466,1.252-3.874l-0.597-5.574c-0.028-0.266-0.159-0.498-0.351-0.659V5h-2v12h-3V5h-2v12h-3V5h-2v12.234    c-0.192,0.161-0.323,0.393-0.351,0.659l-0.597,5.574c-0.151,1.408,0.305,2.82,1.252,3.874    C51.369,27.389,51.412,27.435,51.456,27.48z"></path></g></g></svg>