<svg id="Calque_5" data-name="Calque 5" xmlns="http://www.w3.org/2000/svg" xmlns:xlink="http://www.w3.org/1999/xlink" viewBox="0 0 316.65 133.43"><defs><linearGradient id="Nouvelle_nuance_de_dégradé_3" x1="86.25" y1="42.21" x2="47.02" y2="84.46" gradientUnits="userSpaceOnUse"><stop offset="0" stop-color="#fdb827"/><stop offset="1" stop-color="#f5821f"/></linearGradient><linearGradient id="Nouvelle_nuance_de_dégradé_2" x1="38.07" y1="84.53" x2="101.68" y2="72.69" gradientUnits="userSpaceOnUse"><stop offset="0" stop-color="#f5821f"/><stop offset="1" stop-color="#e0393d"/></linearGradient><linearGradient id="Dégradé_sans_nom_8" x1="64.04" y1="68.98" x2="49.33" y2="31.57" gradientUnits="userSpaceOnUse"><stop offset="0" stop-color="#0029a3"/><stop offset="1" stop-color="#000039"/></linearGradient><linearGradient id="Dégradé_sans_nom_8-2" x1="47.76" y1="75.38" x2="33.05" y2="37.97" xlink:href="#Dégradé_sans_nom_8"/><linearGradient id="Dégradé_sans_nom_7" x1="226.08" y1="70.25" x2="215.7" y2="96.45" gradientUnits="userSpaceOnUse"><stop offset="0" stop-color="#000039"/><stop offset="1" stop-color="#001570"/></linearGradient><linearGradient id="Dégradé_sans_nom_3" x1="265.93" y1="39.69" x2="265.93" y2="63.08" gradientUnits="userSpaceOnUse"><stop offset="0" stop-color="#001570"/><stop offset="1" stop-color="#000039"/></linearGradient><radialGradient id="Dégradé_sans_nom_2" cx="190.26" cy="62.44" r="28.99" gradientUnits="userSpaceOnUse"><stop offset="0" stop-color="#000039"/><stop offset="0.9" stop-color="#001570"/></radialGradient></defs><path d="M71.21,31.08A30.51,30.51,0,0,1,75,45.86,30.6,30.6,0,0,1,62.69,70.4a30.62,30.62,0,0,1-18.36,6.15c-1,0-2.1,0-3.12-.15a30.19,30.19,0,0,1-5.14-1l.11,0-.69-.17c.11.1.23.21.35.3s.52.44.78.65l.64.51.82.6.66.47.85.57.68.43.89.53.7.4c.3.17.62.33.93.49s.46.24.7.35l1,.47.67.3,1.15.46.57.23q.87.31,1.77.6a36.44,36.44,0,0,0,27.21-2.15,28.29,28.29,0,0,0,8.9-6.77,28.93,28.93,0,0,0,6.66-24.16,28.53,28.53,0,0,0-2.65-7.85,22.4,22.4,0,0,0-3-4.44A23.16,23.16,0,0,0,83.57,35a24.38,24.38,0,0,0-11.52-5.2c-.6-.11-1.2-.21-1.81-.3l.05.08C70.6,30.11,70.93,30.57,71.21,31.08Z" fill="url(#Nouvelle_nuance_de_dégradé_3)"/><path d="M102.39,66.49a37.2,37.2,0,0,0-4.66-18,35.13,35.13,0,0,1-15.8,36C81,85,80.09,85.49,79.12,86c-.7.36-1.42.7-2.14,1l-.69.29c-.5.21-1,.41-1.51.6l-.79.3c-.49.17-1,.34-1.48.49l-.78.24c-.56.17-1.12.32-1.69.46l-.56.15c-.76.18-1.52.34-2.29.48l-.44.07c-.61.1-1.23.2-1.86.27-.25,0-.51.06-.76.09l-1.57.14-.82,0c-.53,0-1.06,0-1.6,0l-.52,0h-.94c-.43,0-.86,0-1.29,0l-.65,0-1.45-.13-.43,0c-.62-.07-1.24-.15-1.86-.25l-.5-.09c-.46-.07-.92-.16-1.38-.25l-.64-.14c-.44-.09-.87-.19-1.3-.3l-.59-.15c-.61-.16-1.23-.34-1.84-.53s-1.48-.49-2.21-.76c-.23-.08-.46-.18-.69-.27q-.75-.29-1.47-.6l-.79-.36c-.45-.2-.89-.41-1.33-.63l-.78-.4L38.14,85l-.67-.38c-.58-.35-1.14-.7-1.7-1.07l-.24-.15c-.63-.43-1.24-.87-1.85-1.32l-.56-.45c-.42-.32-.83-.64-1.23-1L31.24,80c-.36-.32-.72-.64-1.07-1l-.36-.33a37.64,37.64,0,0,0,26,23.91l.72.18c.68.16,1.36.3,2.06.42l1.48.23c.56.07,1.11.15,1.68.2,1,.08,1.94.14,2.92.15h.42A37.35,37.35,0,0,0,102.39,66.49Z" fill="url(#Nouvelle_nuance_de_dégradé_2)"/><path d="M65,34.34,65,34.25l0,0a22,22,0,0,0-7.79,10C54.56,37,59.83,29.62,59.83,29.62a27.6,27.6,0,0,0-10.44,8.81l-.08.1c-.29.41-.56.8-.81,1.18s-.63,1-.92,1.48-.53.94-.7,1.29l-.15.3-.27.58v0a23,23,0,0,0-1.78,6.51,23.7,23.7,0,0,0-.17,2.74,23.23,23.23,0,0,0,6.62,16.21c.5-.16,1-.31,1.48-.5a24.64,24.64,0,0,0,5.65-3.17A24.16,24.16,0,0,0,65,34.34Z" fill="url(#Dégradé_sans_nom_8)"/><path d="M36.33,42.69c-.09.1-.17.21-.25.31a37.11,37.11,0,0,0-6.45,11.79l-.05-.06a25.84,25.84,0,0,0-4.34-4,24.21,24.21,0,0,0-5-2.74,24.12,24.12,0,0,0,7.6,15.53l0,0a24.06,24.06,0,0,0,13.91,6.36c.27,0,.55,0,.83,0,0-.08-.09-.16-.14-.23A27,27,0,0,1,48.4,33.2a3.86,3.86,0,0,1,.46-.32A37.23,37.23,0,0,0,36.33,42.69Z" fill="url(#Dégradé_sans_nom_8-2)"/><path d="M223.56,93.31a10.67,10.67,0,0,1,0-21.34V61.48a21.17,21.17,0,1,0,0,42.33h9.61V93.31Z" fill="url(#Dégradé_sans_nom_7)"/><path d="M265.93,29.64H244.76V66.72h35.1a21.15,21.15,0,0,0-13.93-37.08Zm0,31.83H255.26V40.13h10.67a10.67,10.67,0,1,1,0,21.34Z" fill="url(#Dégradé_sans_nom_3)"/><path d="M265.93,61.48H244.76v42.33h21.17a21.17,21.17,0,0,0,0-42.33Zm0,31.83H255.26V72h10.67a10.67,10.67,0,1,1,0,21.34Z" fill="#001d70"/><path d="M223.56,40.14h9.95V29.64h-9.95A21.17,21.17,0,0,0,223.42,72h9.75V61.48h-9.61a10.67,10.67,0,0,1,0-21.34Z" fill="#001d70"/><path d="M134.08,61.49h0a10.69,10.69,0,1,1,9.7-15.12L153.32,42a21.17,21.17,0,1,0-19.24,30h0a10.68,10.68,0,1,1-9.73,15.08l-9.56,4.32a21.18,21.18,0,1,0,19.29-29.9Z" fill="#001d70"/><path d="M197.63,50.81A21.17,21.17,0,0,0,157.2,42l9.54,4.36a10.68,10.68,0,1,1,9.7,15.12V72A21.2,21.2,0,0,0,197.63,50.81Z" fill="url(#Dégradé_sans_nom_2)"/><path d="M176.44,61.45V72A10.68,10.68,0,1,1,166.72,87l-9.56,4.32a21.18,21.18,0,1,0,19.28-29.9Z" fill="#001d70"/></svg>